<svg width="64" height="64" viewBox="0 0 64 64" fill="none" xmlns="http://www.w3.org/2000/svg">
  <defs>
    <linearGradient id="bg" x1="11" y1="8" x2="53" y2="57" gradientUnits="userSpaceOnUse">
      <stop stop-color="#10182E"/>
      <stop offset="1" stop-color="#050913"/>
    </linearGradient>
    <linearGradient id="trim" x1="20" y1="15" x2="44" y2="49" gradientUnits="userSpaceOnUse">
      <stop stop-color="#EAFBFF"/>
      <stop offset="1" stop-color="#67DFF8"/>
    </linearGradient>
  </defs>
  <rect x="4" y="4" width="56" height="56" rx="16" fill="url(#bg)"/>
  <rect x="4.5" y="4.5" width="55" height="55" rx="15.5" stroke="#1D2D52"/>
  <path d="M32 13L45 17.3V28.9C45 37.1 39.7 44.1 32 46.8C24.3 44.1 19 37.1 19 28.9V17.3L32 13Z" fill="#091221"/>
  <path d="M32 15.2L43 18.9V28.8C43 35.7 38.7 41.7 32 44.2C25.3 41.7 21 35.7 21 28.8V18.9L32 15.2Z" fill="#091221" stroke="url(#trim)" stroke-width="2.6"/>
  <path d="M32.5 21.2L27.1 26.5H33.3L25.2 35.8H30.4L24.7 42.3L38.5 31.1H32.4L39 24.1H33.3L39.2 18.6L32.5 21.2Z" fill="#EAFBFF"/>
</svg>
