<svg width="160" height="160" viewBox="0 0 160 160" fill="none" xmlns="http://www.w3.org/2000/svg">
  <defs>
    <linearGradient id="bg" x1="28" y1="16" x2="132" y2="146" gradientUnits="userSpaceOnUse">
      <stop stop-color="#10182E"/>
      <stop offset="1" stop-color="#050913"/>
    </linearGradient>
    <linearGradient id="trim" x1="48" y1="28" x2="112" y2="122" gradientUnits="userSpaceOnUse">
      <stop stop-color="#EAFBFF"/>
      <stop offset="0.45" stop-color="#7DE9FF"/>
      <stop offset="1" stop-color="#56C7F0"/>
    </linearGradient>
    <linearGradient id="core" x1="63" y1="48" x2="102" y2="112" gradientUnits="userSpaceOnUse">
      <stop stop-color="#FFFFFF"/>
      <stop offset="1" stop-color="#C8F6FF"/>
    </linearGradient>
  </defs>
  <rect x="12" y="12" width="136" height="136" rx="34" fill="url(#bg)"/>
  <rect x="12.75" y="12.75" width="134.5" height="134.5" rx="33.25" stroke="#1D2D52" stroke-width="1.5"/>
  <path d="M80 29L116 41V72C116 94.7 101.3 115.5 80 123C58.7 115.5 44 94.7 44 72V41L80 29Z" fill="#081120"/>
  <path d="M80 34.5L111.5 45V72C111.5 91.5 99.1 109.1 80 116.3C60.9 109.1 48.5 91.5 48.5 72V45L80 34.5Z" fill="url(#bg)" stroke="url(#trim)" stroke-width="4"/>
  <path d="M80 41L104 49.1V71.8C104 86.6 94.6 100.3 80 106C65.4 100.3 56 86.6 56 71.8V49.1L80 41Z" fill="#0A1529"/>
  <path d="M95.6 53.8C91.3 50.1 85.8 48 80 48C67.9 48 57.8 56.1 55.2 67.1C60.7 62.9 67.5 60.4 74.9 60.4C80.5 60.4 85.8 61.9 90.3 64.7C94 67 98.7 64.4 99 60.1C99.2 57.6 97.9 55.7 95.6 53.8Z" fill="#6EEBFF" fill-opacity="0.22"/>
  <path d="M80.8 51.8L69.3 63.1H82.7L64.6 83.5H76.2L63.5 98.3L94.4 73.8H81.1L95.6 58.6H82.7L96 45.7L80.8 51.8Z" fill="url(#core)"/>
  <path d="M59.8 102.4C65.1 108.4 72.2 112.9 80 115.8C87.8 112.9 94.9 108.4 100.2 102.4C95.2 104.2 89.8 105.2 84.3 105.2H75.7C70.2 105.2 64.8 104.2 59.8 102.4Z" fill="#6EEBFF" fill-opacity="0.2"/>
</svg>
